<svg width="200" height="200" viewBox="0 0 200 200" fill="none" xmlns="http://www.w3.org/2000/svg">
  <!-- Chemex coffee maker -->
  <g id="chemex">
    <!-- Top cone/funnel -->
    <path d="M 75 50 L 90 95 L 110 95 L 125 50" 
          fill="none" stroke="#2c1810" stroke-width="3" stroke-linejoin="miter"/>
    
    <!-- Top opening -->
    <line x1="75" y1="50" x2="125" y2="50" stroke="#2c1810" stroke-width="3" stroke-linecap="round"/>
    
    <!-- Bottom rounded flask -->
    <path d="M 90 105 Q 70 115 70 140 Q 70 165 100 170 Q 130 165 130 140 Q 130 115 110 105" 
          fill="none" stroke="#2c1810" stroke-width="3"/>
    
    <!-- Coffee in bottom flask -->
    <path d="M 90 110 Q 73 118 73 140 Q 73 160 100 165 Q 127 160 127 140 Q 127 118 110 110 Z" 
          fill="#6f4e37"/>
    
    <!-- Coffee surface -->
    <path d="M 90 110 Q 100 108 110 110" stroke="#2c1810" stroke-width="2" fill="none"/>
    
    <!-- Wooden collar -->
    <rect x="88" y="95" width="24" height="10" rx="1" fill="#a67c52" stroke="#6f4e37" stroke-width="1"/>
    
    <!-- Leather tie detail -->
    <circle cx="78" cy="100" r="2.5" fill="#6f4e37"/>
    <line x1="78" y1="100" x2="74" y2="105" stroke="#6f4e37" stroke-width="1.5" stroke-linecap="round"/>
    <line x1="78" y1="100" x2="74" y2="95" stroke="#6f4e37" stroke-width="1.5" stroke-linecap="round"/>
    
    <!-- Glass highlights -->
    <path d="M 95 55 L 92 90" 
          fill="none" stroke="white" stroke-width="2" opacity="0.3" stroke-linecap="round"/>
    <path d="M 75 120 Q 75 140 80 155" 
          fill="none" stroke="#a67c52" stroke-width="2" opacity="0.25" stroke-linecap="round"/>
  </g>
  
  <!-- Steam -->
  <g id="steam" opacity="0.7">
    <path d="M 85 45 Q 82 35 85 25" 
          fill="none" stroke="#d4a574" stroke-width="2.5" stroke-linecap="round">
      <animate attributeName="opacity" values="0.7;0.3;0.7" dur="3s" repeatCount="indefinite"/>
    </path>
    <path d="M 100 42 Q 97 32 100 22" 
          fill="none" stroke="#d4a574" stroke-width="2.5" stroke-linecap="round">
      <animate attributeName="opacity" values="0.5;0.8;0.5" dur="2.5s" repeatCount="indefinite"/>
    </path>
    <path d="M 115 45 Q 118 35 115 25" 
          fill="none" stroke="#d4a574" stroke-width="2.5" stroke-linecap="round">
      <animate attributeName="opacity" values="0.6;0.4;0.6" dur="3.5s" repeatCount="indefinite"/>
    </path>
  </g>
</svg>
